<mxfile host="app.diagrams.net" modified="2023-08-12T20:07:48.617Z" agent="Mozilla/5.0 (Windows NT 10.0; WOW64) AppleWebKit/537.36 (KHTML, like Gecko) Chrome/86.0.4240.198 Safari/537.36" etag="xa896s0DvH4LqAUeiY8y" version="21.6.8" type="device">
  <diagram name="第 1 页" id="O-ZYBFdght0jTQOg6nOt">
    <mxGraphModel dx="9786" dy="4476" grid="1" gridSize="10" guides="1" tooltips="1" connect="1" arrows="1" fold="1" page="1" pageScale="1" pageWidth="827" pageHeight="1169" math="0" shadow="0">
      <root>
        <mxCell id="0" />
        <mxCell id="1" parent="0" />
        <mxCell id="34RIHxuQ_jPm4yVOZC5l-3" value="Unity Event" style="rounded=0;whiteSpace=wrap;html=1;fontStyle=1" parent="1" vertex="1">
          <mxGeometry x="71" y="250" width="90" height="910" as="geometry" />
        </mxCell>
        <mxCell id="34RIHxuQ_jPm4yVOZC5l-4" value="OnEnable" style="rounded=0;whiteSpace=wrap;html=1;fontStyle=1" parent="1" vertex="1">
          <mxGeometry x="231" y="250" width="120" height="60" as="geometry" />
        </mxCell>
        <mxCell id="34RIHxuQ_jPm4yVOZC5l-5" value="OnValidate" style="rounded=0;whiteSpace=wrap;html=1;fontStyle=1" parent="1" vertex="1">
          <mxGeometry x="231" y="330" width="120" height="60" as="geometry" />
        </mxCell>
        <mxCell id="34RIHxuQ_jPm4yVOZC5l-6" value="" style="endArrow=classic;html=1;rounded=0;entryX=0;entryY=0.5;entryDx=0;entryDy=0;fontStyle=1" parent="1" target="34RIHxuQ_jPm4yVOZC5l-4" edge="1">
          <mxGeometry width="50" height="50" relative="1" as="geometry">
            <mxPoint x="181" y="280" as="sourcePoint" />
            <mxPoint x="201" y="270" as="targetPoint" />
          </mxGeometry>
        </mxCell>
        <mxCell id="34RIHxuQ_jPm4yVOZC5l-8" value="" style="endArrow=classic;html=1;rounded=0;entryX=0;entryY=0.5;entryDx=0;entryDy=0;fontStyle=1" parent="1" target="34RIHxuQ_jPm4yVOZC5l-5" edge="1">
          <mxGeometry width="50" height="50" relative="1" as="geometry">
            <mxPoint x="181" y="360" as="sourcePoint" />
            <mxPoint x="241" y="290" as="targetPoint" />
          </mxGeometry>
        </mxCell>
        <mxCell id="34RIHxuQ_jPm4yVOZC5l-11" value="" style="shape=link;html=1;rounded=0;exitX=1;exitY=0.5;exitDx=0;exitDy=0;entryX=1;entryY=0.5;entryDx=0;entryDy=0;fontStyle=1" parent="1" source="34RIHxuQ_jPm4yVOZC5l-4" target="34RIHxuQ_jPm4yVOZC5l-5" edge="1">
          <mxGeometry width="100" relative="1" as="geometry">
            <mxPoint x="241" y="370" as="sourcePoint" />
            <mxPoint x="341" y="370" as="targetPoint" />
            <Array as="points">
              <mxPoint x="491" y="310" />
            </Array>
          </mxGeometry>
        </mxCell>
        <mxCell id="34RIHxuQ_jPm4yVOZC5l-13" value="RenderFeature" style="rounded=0;whiteSpace=wrap;html=1;fontStyle=1" parent="1" vertex="1">
          <mxGeometry x="470" y="30" width="1440" height="60" as="geometry" />
        </mxCell>
        <mxCell id="34RIHxuQ_jPm4yVOZC5l-18" style="edgeStyle=orthogonalEdgeStyle;rounded=0;orthogonalLoop=1;jettySize=auto;html=1;fontStyle=1" parent="1" source="34RIHxuQ_jPm4yVOZC5l-15" target="34RIHxuQ_jPm4yVOZC5l-17" edge="1">
          <mxGeometry relative="1" as="geometry" />
        </mxCell>
        <mxCell id="34RIHxuQ_jPm4yVOZC5l-15" value="&lt;font color=&quot;#ff0000&quot;&gt;Create()&lt;/font&gt;" style="rounded=0;whiteSpace=wrap;html=1;fontStyle=1" parent="1" vertex="1">
          <mxGeometry x="501" y="280" width="120" height="60" as="geometry" />
        </mxCell>
        <mxCell id="34RIHxuQ_jPm4yVOZC5l-19" style="edgeStyle=orthogonalEdgeStyle;rounded=0;orthogonalLoop=1;jettySize=auto;html=1;fontStyle=1" parent="1" source="34RIHxuQ_jPm4yVOZC5l-16" edge="1">
          <mxGeometry relative="1" as="geometry">
            <mxPoint x="721" y="310" as="targetPoint" />
          </mxGeometry>
        </mxCell>
        <mxCell id="34RIHxuQ_jPm4yVOZC5l-16" value="Shader List" style="text;strokeColor=none;fillColor=#FF00FF;html=1;fontSize=24;fontStyle=1;verticalAlign=middle;align=center;" parent="1" vertex="1">
          <mxGeometry x="641" y="210" width="160" height="40" as="geometry" />
        </mxCell>
        <mxCell id="34RIHxuQ_jPm4yVOZC5l-20" style="edgeStyle=orthogonalEdgeStyle;rounded=0;orthogonalLoop=1;jettySize=auto;html=1;fontStyle=1" parent="1" source="34RIHxuQ_jPm4yVOZC5l-17" edge="1">
          <mxGeometry relative="1" as="geometry">
            <mxPoint x="1101" y="310" as="targetPoint" />
          </mxGeometry>
        </mxCell>
        <mxCell id="34RIHxuQ_jPm4yVOZC5l-17" value="Material List" style="rounded=0;whiteSpace=wrap;html=1;fontStyle=1" parent="1" vertex="1">
          <mxGeometry x="811" y="280" width="120" height="60" as="geometry" />
        </mxCell>
        <mxCell id="34RIHxuQ_jPm4yVOZC5l-21" value="Per Camera Render" style="rounded=0;whiteSpace=wrap;html=1;fontStyle=1" parent="1" vertex="1">
          <mxGeometry x="1121" y="280" width="120" height="60" as="geometry" />
        </mxCell>
        <mxCell id="34RIHxuQ_jPm4yVOZC5l-22" value="Material List" style="rounded=0;whiteSpace=wrap;html=1;fontStyle=1" parent="1" vertex="1">
          <mxGeometry x="821" y="290" width="120" height="60" as="geometry" />
        </mxCell>
        <mxCell id="34RIHxuQ_jPm4yVOZC5l-23" value="CustomRenderPass(只执行一次) -&amp;gt; Loop(SetUp -&amp;gt; Configure -&amp;gt; Execute -&amp;gt; FrameCleanup)" style="text;strokeColor=none;fillColor=none;html=1;fontSize=24;fontStyle=1;verticalAlign=middle;align=center;" parent="1" vertex="1">
          <mxGeometry x="930" y="100" width="100" height="40" as="geometry" />
        </mxCell>
        <mxCell id="34RIHxuQ_jPm4yVOZC5l-24" value="AddRenderPasses" style="text;html=1;strokeColor=default;fillColor=none;align=center;verticalAlign=middle;whiteSpace=wrap;rounded=0;fontStyle=1" parent="1" vertex="1">
          <mxGeometry x="1390" y="280" width="110" height="60" as="geometry" />
        </mxCell>
        <mxCell id="34RIHxuQ_jPm4yVOZC5l-25" value="Render pirpline" style="rounded=0;whiteSpace=wrap;html=1;fontStyle=1" parent="1" vertex="1">
          <mxGeometry x="2110" y="245" width="210" height="680" as="geometry" />
        </mxCell>
        <mxCell id="34RIHxuQ_jPm4yVOZC5l-26" value="&lt;font color=&quot;#ff0000&quot;&gt;&lt;font style=&quot;vertical-align: inherit;&quot;&gt;&lt;font style=&quot;vertical-align: inherit;&quot;&gt;设置渲染&lt;/font&gt;&lt;/font&gt;&lt;/font&gt;" style="text;html=1;strokeColor=none;fillColor=none;align=center;verticalAlign=middle;whiteSpace=wrap;rounded=0;fontStyle=1" parent="1" vertex="1">
          <mxGeometry x="970" y="280" width="90" height="30" as="geometry" />
        </mxCell>
        <mxCell id="34RIHxuQ_jPm4yVOZC5l-27" value="&lt;font color=&quot;#ff00ff&quot;&gt;SetupRenderPasses&lt;/font&gt;" style="text;html=1;strokeColor=none;fillColor=none;align=center;verticalAlign=middle;whiteSpace=wrap;rounded=0;fontStyle=1" parent="1" vertex="1">
          <mxGeometry x="1260" y="430" width="110" height="30" as="geometry" />
        </mxCell>
        <mxCell id="34RIHxuQ_jPm4yVOZC5l-28" value="" style="endArrow=classic;html=1;rounded=0;exitX=1;exitY=0.5;exitDx=0;exitDy=0;fontStyle=1" parent="1" source="34RIHxuQ_jPm4yVOZC5l-21" edge="1">
          <mxGeometry width="50" height="50" relative="1" as="geometry">
            <mxPoint x="1240" y="320" as="sourcePoint" />
            <mxPoint x="1380" y="310" as="targetPoint" />
          </mxGeometry>
        </mxCell>
        <mxCell id="34RIHxuQ_jPm4yVOZC5l-29" value="invoke" style="text;html=1;strokeColor=none;fillColor=none;align=center;verticalAlign=middle;whiteSpace=wrap;rounded=0;fontStyle=1" parent="1" vertex="1">
          <mxGeometry x="1275" y="280" width="60" height="30" as="geometry" />
        </mxCell>
        <mxCell id="34RIHxuQ_jPm4yVOZC5l-30" value="Render Before" style="text;html=1;strokeColor=#005700;fillColor=#008a00;align=center;verticalAlign=middle;whiteSpace=wrap;rounded=0;fontColor=#ffffff;fontStyle=1" parent="1" vertex="1">
          <mxGeometry x="1320" y="340" width="60" height="30" as="geometry" />
        </mxCell>
        <mxCell id="34RIHxuQ_jPm4yVOZC5l-31" value="" style="endArrow=classic;html=1;rounded=0;entryX=0.598;entryY=1.047;entryDx=0;entryDy=0;entryPerimeter=0;fontStyle=1" parent="1" target="34RIHxuQ_jPm4yVOZC5l-29" edge="1">
          <mxGeometry width="50" height="50" relative="1" as="geometry">
            <mxPoint x="1310" y="430" as="sourcePoint" />
            <mxPoint x="1390" y="320" as="targetPoint" />
          </mxGeometry>
        </mxCell>
        <mxCell id="34RIHxuQ_jPm4yVOZC5l-32" value="&lt;font color=&quot;#0000ff&quot;&gt;Set Src and Dest RT&lt;/font&gt;" style="rounded=0;whiteSpace=wrap;html=1;fontStyle=1" parent="1" vertex="1">
          <mxGeometry x="1320" y="380" width="140" height="40" as="geometry" />
        </mxCell>
        <mxCell id="34RIHxuQ_jPm4yVOZC5l-33" value="" style="endArrow=classic;html=1;rounded=0;exitX=1;exitY=0.5;exitDx=0;exitDy=0;entryX=0;entryY=0.5;entryDx=0;entryDy=0;fontStyle=1" parent="1" source="34RIHxuQ_jPm4yVOZC5l-24" target="34RIHxuQ_jPm4yVOZC5l-35" edge="1">
          <mxGeometry width="50" height="50" relative="1" as="geometry">
            <mxPoint x="1530" y="330" as="sourcePoint" />
            <mxPoint x="1610" y="310" as="targetPoint" />
          </mxGeometry>
        </mxCell>
        <mxCell id="34RIHxuQ_jPm4yVOZC5l-34" value="join a team" style="text;html=1;strokeColor=none;fillColor=none;align=center;verticalAlign=middle;whiteSpace=wrap;rounded=0;fontStyle=1" parent="1" vertex="1">
          <mxGeometry x="1590" y="270" width="90" height="30" as="geometry" />
        </mxCell>
        <mxCell id="34RIHxuQ_jPm4yVOZC5l-35" value="RenderPass" style="rounded=0;whiteSpace=wrap;html=1;fillColor=#FF0000;fontStyle=1" parent="1" vertex="1">
          <mxGeometry x="1730" y="280" width="120" height="60" as="geometry" />
        </mxCell>
        <mxCell id="34RIHxuQ_jPm4yVOZC5l-36" value="" style="endArrow=classic;html=1;rounded=0;fontStyle=1" parent="1" edge="1">
          <mxGeometry width="50" height="50" relative="1" as="geometry">
            <mxPoint x="1860" y="310" as="sourcePoint" />
            <mxPoint x="2020" y="310" as="targetPoint" />
          </mxGeometry>
        </mxCell>
        <mxCell id="34RIHxuQ_jPm4yVOZC5l-37" value="join Pst stack" style="text;html=1;strokeColor=none;fillColor=none;align=center;verticalAlign=middle;whiteSpace=wrap;rounded=0;fontStyle=1" parent="1" vertex="1">
          <mxGeometry x="1890" y="265" width="90" height="30" as="geometry" />
        </mxCell>
        <mxCell id="34RIHxuQ_jPm4yVOZC5l-38" value="configure" style="rounded=0;whiteSpace=wrap;html=1;fontStyle=1" parent="1" vertex="1">
          <mxGeometry x="501" y="534" width="120" height="60" as="geometry" />
        </mxCell>
        <mxCell id="34RIHxuQ_jPm4yVOZC5l-39" value="" style="endArrow=classic;html=1;rounded=0;exitX=1;exitY=0.5;exitDx=0;exitDy=0;fontStyle=1" parent="1" source="34RIHxuQ_jPm4yVOZC5l-38" edge="1">
          <mxGeometry width="50" height="50" relative="1" as="geometry">
            <mxPoint x="670" y="600" as="sourcePoint" />
            <mxPoint x="720" y="564" as="targetPoint" />
          </mxGeometry>
        </mxCell>
        <mxCell id="34RIHxuQ_jPm4yVOZC5l-40" value="分配显存&lt;br&gt;" style="text;html=1;strokeColor=none;fillColor=none;align=center;verticalAlign=middle;whiteSpace=wrap;rounded=0;fontStyle=1" parent="1" vertex="1">
          <mxGeometry x="640" y="520" width="60" height="30" as="geometry" />
        </mxCell>
        <mxCell id="34RIHxuQ_jPm4yVOZC5l-41" value="FrameCleanup" style="rounded=0;whiteSpace=wrap;html=1;fontStyle=1" parent="1" vertex="1">
          <mxGeometry x="501" y="970" width="120" height="60" as="geometry" />
        </mxCell>
        <mxCell id="34RIHxuQ_jPm4yVOZC5l-42" value="" style="endArrow=classic;html=1;rounded=0;exitX=1;exitY=0.5;exitDx=0;exitDy=0;fontStyle=1" parent="1" source="34RIHxuQ_jPm4yVOZC5l-41" edge="1">
          <mxGeometry width="50" height="50" relative="1" as="geometry">
            <mxPoint x="670" y="1040" as="sourcePoint" />
            <mxPoint x="710" y="1000" as="targetPoint" />
          </mxGeometry>
        </mxCell>
        <mxCell id="34RIHxuQ_jPm4yVOZC5l-43" value="回收内容&lt;br&gt;" style="text;html=1;strokeColor=none;fillColor=none;align=center;verticalAlign=middle;whiteSpace=wrap;rounded=0;fontStyle=1" parent="1" vertex="1">
          <mxGeometry x="640" y="960" width="60" height="30" as="geometry" />
        </mxCell>
        <mxCell id="34RIHxuQ_jPm4yVOZC5l-45" value="Execute" style="rounded=0;whiteSpace=wrap;html=1;fillColor=#CC6600;fontColor=#FFFFFF;fontStyle=1" parent="1" vertex="1">
          <mxGeometry x="501" y="786" width="120" height="60" as="geometry" />
        </mxCell>
        <mxCell id="34RIHxuQ_jPm4yVOZC5l-46" value="" style="endArrow=classic;html=1;rounded=0;exitX=1;exitY=0.5;exitDx=0;exitDy=0;fontStyle=1" parent="1" source="34RIHxuQ_jPm4yVOZC5l-45" edge="1">
          <mxGeometry width="50" height="50" relative="1" as="geometry">
            <mxPoint x="670" y="860" as="sourcePoint" />
            <mxPoint x="720" y="816" as="targetPoint" />
          </mxGeometry>
        </mxCell>
        <mxCell id="34RIHxuQ_jPm4yVOZC5l-47" value="执行" style="text;html=1;strokeColor=none;fillColor=none;align=center;verticalAlign=middle;whiteSpace=wrap;rounded=0;fontStyle=1" parent="1" vertex="1">
          <mxGeometry x="640" y="780" width="60" height="30" as="geometry" />
        </mxCell>
        <mxCell id="34RIHxuQ_jPm4yVOZC5l-48" value="" style="strokeWidth=2;html=1;shape=mxgraph.flowchart.annotation_1;align=left;pointerEvents=1;fontStyle=1" parent="1" vertex="1">
          <mxGeometry x="450" y="450" width="40" height="550" as="geometry" />
        </mxCell>
        <mxCell id="34RIHxuQ_jPm4yVOZC5l-49" value="&lt;font color=&quot;#ff0000&quot;&gt;Render Loop&lt;/font&gt;" style="text;html=1;strokeColor=none;fillColor=none;align=center;verticalAlign=middle;whiteSpace=wrap;rounded=0;fontStyle=1" parent="1" vertex="1">
          <mxGeometry x="354" y="554" width="60" height="30" as="geometry" />
        </mxCell>
        <mxCell id="34RIHxuQ_jPm4yVOZC5l-50" value="" style="endArrow=classic;html=1;rounded=0;exitX=0.5;exitY=1;exitDx=0;exitDy=0;entryX=0.5;entryY=0;entryDx=0;entryDy=0;fontStyle=1" parent="1" source="34RIHxuQ_jPm4yVOZC5l-15" target="34RIHxuQ_jPm4yVOZC5l-51" edge="1">
          <mxGeometry width="50" height="50" relative="1" as="geometry">
            <mxPoint x="510" y="430" as="sourcePoint" />
            <mxPoint x="560" y="380" as="targetPoint" />
          </mxGeometry>
        </mxCell>
        <mxCell id="34RIHxuQ_jPm4yVOZC5l-51" value="SetUp&lt;br&gt;" style="rounded=0;whiteSpace=wrap;html=1;fontStyle=1" parent="1" vertex="1">
          <mxGeometry x="501" y="420" width="120" height="60" as="geometry" />
        </mxCell>
        <mxCell id="34RIHxuQ_jPm4yVOZC5l-53" value="" style="endArrow=classic;html=1;rounded=0;entryX=0.5;entryY=0.947;entryDx=0;entryDy=0;entryPerimeter=0;fontStyle=1" parent="1" target="34RIHxuQ_jPm4yVOZC5l-48" edge="1">
          <mxGeometry width="50" height="50" relative="1" as="geometry">
            <mxPoint x="470" y="490" as="sourcePoint" />
            <mxPoint x="520" y="440" as="targetPoint" />
          </mxGeometry>
        </mxCell>
        <mxCell id="34RIHxuQ_jPm4yVOZC5l-56" value="&lt;font color=&quot;#ff00ff&quot;&gt;EnqueuePass&lt;/font&gt;" style="rounded=0;whiteSpace=wrap;html=1;fontStyle=1" parent="1" vertex="1">
          <mxGeometry x="1580" y="325" width="110" height="60" as="geometry" />
        </mxCell>
        <mxCell id="34RIHxuQ_jPm4yVOZC5l-57" value="DisPose" style="rounded=0;whiteSpace=wrap;html=1;fontStyle=1" parent="1" vertex="1">
          <mxGeometry x="501" y="1100" width="120" height="60" as="geometry" />
        </mxCell>
        <mxCell id="34RIHxuQ_jPm4yVOZC5l-62" value="set the correct camera viewport" style="rounded=0;whiteSpace=wrap;html=1;fontStyle=1" parent="1" vertex="1">
          <mxGeometry x="801.62" y="800" width="160" height="34" as="geometry" />
        </mxCell>
        <mxCell id="34RIHxuQ_jPm4yVOZC5l-72" style="edgeStyle=orthogonalEdgeStyle;rounded=0;orthogonalLoop=1;jettySize=auto;html=1;exitX=1;exitY=0.5;exitDx=0;exitDy=0;entryX=0;entryY=0.5;entryDx=0;entryDy=0;fontStyle=1" parent="1" source="34RIHxuQ_jPm4yVOZC5l-63" target="34RIHxuQ_jPm4yVOZC5l-71" edge="1">
          <mxGeometry relative="1" as="geometry" />
        </mxCell>
        <mxCell id="34RIHxuQ_jPm4yVOZC5l-63" value="BlitTexture" style="rounded=0;whiteSpace=wrap;html=1;fontStyle=1" parent="1" vertex="1">
          <mxGeometry x="1190" y="846" width="120" height="60" as="geometry" />
        </mxCell>
        <mxCell id="34RIHxuQ_jPm4yVOZC5l-88" style="edgeStyle=orthogonalEdgeStyle;rounded=0;orthogonalLoop=1;jettySize=auto;html=1;entryX=0;entryY=0.5;entryDx=0;entryDy=0;fontStyle=1" parent="1" source="34RIHxuQ_jPm4yVOZC5l-68" target="34RIHxuQ_jPm4yVOZC5l-63" edge="1">
          <mxGeometry relative="1" as="geometry" />
        </mxCell>
        <mxCell id="34RIHxuQ_jPm4yVOZC5l-68" value="&lt;span style=&quot;background-color: rgb(255, 255, 255);&quot;&gt;&lt;font color=&quot;#ff0000&quot;&gt;CoreUtils.SetRenderTarget&lt;/font&gt;&lt;/span&gt;" style="rounded=0;whiteSpace=wrap;html=1;fontStyle=1" parent="1" vertex="1">
          <mxGeometry x="801.62" y="846" width="198.75" height="60" as="geometry" />
        </mxCell>
        <mxCell id="34RIHxuQ_jPm4yVOZC5l-74" style="edgeStyle=orthogonalEdgeStyle;rounded=0;orthogonalLoop=1;jettySize=auto;html=1;entryX=0;entryY=0.5;entryDx=0;entryDy=0;fontStyle=1" parent="1" source="34RIHxuQ_jPm4yVOZC5l-71" target="34RIHxuQ_jPm4yVOZC5l-73" edge="1">
          <mxGeometry relative="1" as="geometry" />
        </mxCell>
        <mxCell id="34RIHxuQ_jPm4yVOZC5l-71" value="DrawTriangle" style="rounded=0;whiteSpace=wrap;html=1;fontStyle=1" parent="1" vertex="1">
          <mxGeometry x="1530" y="846" width="120" height="60" as="geometry" />
        </mxCell>
        <mxCell id="34RIHxuQ_jPm4yVOZC5l-75" style="edgeStyle=orthogonalEdgeStyle;rounded=0;orthogonalLoop=1;jettySize=auto;html=1;exitX=1;exitY=0.5;exitDx=0;exitDy=0;entryX=0;entryY=0.937;entryDx=0;entryDy=0;entryPerimeter=0;fontStyle=1" parent="1" edge="1">
          <mxGeometry relative="1" as="geometry">
            <mxPoint x="1799.9999999999995" y="875.29" as="sourcePoint" />
            <mxPoint x="2090" y="876.45" as="targetPoint" />
            <Array as="points">
              <mxPoint x="1900" y="876.29" />
            </Array>
          </mxGeometry>
        </mxCell>
        <UserObject label="cmd.DrawProcedural" link="cmd.DrawProcedural" id="34RIHxuQ_jPm4yVOZC5l-73">
          <mxCell style="rounded=0;whiteSpace=wrap;html=1;fontStyle=1" parent="1" vertex="1">
            <mxGeometry x="1740" y="846" width="160" height="60" as="geometry" />
          </mxCell>
        </UserObject>
        <mxCell id="34RIHxuQ_jPm4yVOZC5l-85" value="" style="strokeWidth=2;html=1;shape=mxgraph.flowchart.annotation_1;align=left;pointerEvents=1;fontStyle=1" parent="1" vertex="1">
          <mxGeometry x="730" y="748" width="50" height="122" as="geometry" />
        </mxCell>
        <mxCell id="34RIHxuQ_jPm4yVOZC5l-87" value="&lt;br style=&quot;border-color: var(--border-color); color: rgb(0, 0, 0); font-family: Helvetica; font-size: 12px; font-style: normal; font-variant-ligatures: normal; font-variant-caps: normal; letter-spacing: normal; orphans: 2; text-align: center; text-indent: 0px; text-transform: none; widows: 2; word-spacing: 0px; -webkit-text-stroke-width: 0px; background-color: rgb(251, 251, 251); text-decoration-thickness: initial; text-decoration-style: initial; text-decoration-color: initial;&quot;&gt;&lt;span style=&quot;border-color: var(--border-color); font-family: Helvetica; font-size: 12px; font-style: normal; font-variant-ligatures: normal; font-variant-caps: normal; letter-spacing: normal; orphans: 2; text-align: center; text-indent: 0px; text-transform: none; widows: 2; word-spacing: 0px; -webkit-text-stroke-width: 0px; text-decoration-thickness: initial; text-decoration-style: initial; text-decoration-color: initial; color: rgb(255, 0, 0); background-color: rgb(251, 251, 251); float: none; user-select: text !important; display: inline !important;&quot;&gt;Blitter.BlitCameraTexture&lt;/span&gt;&lt;br style=&quot;border-color: var(--border-color); color: rgb(0, 0, 0); font-family: Helvetica; font-size: 12px; font-style: normal; font-variant-ligatures: normal; font-variant-caps: normal; letter-spacing: normal; orphans: 2; text-align: center; text-indent: 0px; text-transform: none; widows: 2; word-spacing: 0px; -webkit-text-stroke-width: 0px; background-color: rgb(251, 251, 251); text-decoration-thickness: initial; text-decoration-style: initial; text-decoration-color: initial;&quot;&gt;" style="text;whiteSpace=wrap;html=1;fontStyle=1" parent="1" vertex="1">
          <mxGeometry x="636" y="870" width="170" height="50" as="geometry" />
        </mxCell>
        <mxCell id="34RIHxuQ_jPm4yVOZC5l-90" value="SetFloat、SetGolbe" style="text;whiteSpace=wrap;fillColor=#008a00;fontColor=#ffffff;strokeColor=#005700;align=center;verticalAlign=middle;fontStyle=1" parent="1" vertex="1">
          <mxGeometry x="811" y="730" width="80" height="40" as="geometry" />
        </mxCell>
        <mxCell id="34RIHxuQ_jPm4yVOZC5l-92" value="" style="strokeWidth=2;html=1;shape=mxgraph.flowchart.annotation_2;align=left;labelPosition=right;pointerEvents=1;fontStyle=1" parent="1" vertex="1">
          <mxGeometry x="870" y="1525" width="50" height="410" as="geometry" />
        </mxCell>
        <mxCell id="34RIHxuQ_jPm4yVOZC5l-93" value="if（） return" style="text;html=1;strokeColor=none;fillColor=none;align=center;verticalAlign=middle;whiteSpace=wrap;rounded=0;fontStyle=1" parent="1" vertex="1">
          <mxGeometry x="967.62" y="1525" width="88" height="30" as="geometry" />
        </mxCell>
        <mxCell id="34RIHxuQ_jPm4yVOZC5l-95" value="CmamandBuffer" style="text;html=1;strokeColor=none;fillColor=none;align=center;verticalAlign=middle;whiteSpace=wrap;rounded=0;fontStyle=1" parent="1" vertex="1">
          <mxGeometry x="982" y="1580" width="60" height="30" as="geometry" />
        </mxCell>
        <mxCell id="34RIHxuQ_jPm4yVOZC5l-96" value="context.executecommandBuffer(cmd)" style="text;html=1;strokeColor=none;fillColor=none;align=center;verticalAlign=middle;whiteSpace=wrap;rounded=0;fontStyle=1" parent="1" vertex="1">
          <mxGeometry x="920" y="1730" width="230" height="30" as="geometry" />
        </mxCell>
        <mxCell id="34RIHxuQ_jPm4yVOZC5l-97" value="&lt;div&gt;&amp;nbsp;cmd.Clear()&lt;/div&gt;&lt;div&gt;&lt;br&gt;&lt;/div&gt;" style="text;html=1;strokeColor=none;fillColor=none;align=center;verticalAlign=middle;whiteSpace=wrap;rounded=0;fontStyle=1" parent="1" vertex="1">
          <mxGeometry x="961.62" y="1810" width="100" height="30" as="geometry" />
        </mxCell>
        <mxCell id="34RIHxuQ_jPm4yVOZC5l-98" value="&lt;div&gt;CommandBufferPool.Release(cmd)&lt;br&gt;&lt;/div&gt;" style="text;html=1;strokeColor=none;fillColor=none;align=center;verticalAlign=middle;whiteSpace=wrap;rounded=0;fontStyle=1" parent="1" vertex="1">
          <mxGeometry x="981.62" y="1910" width="100" height="30" as="geometry" />
        </mxCell>
        <mxCell id="34RIHxuQ_jPm4yVOZC5l-99" value="Drew" style="rounded=0;whiteSpace=wrap;html=1;fontColor=#FF0000;fontStyle=1" parent="1" vertex="1">
          <mxGeometry x="952" y="1640" width="120" height="60" as="geometry" />
        </mxCell>
        <mxCell id="34RIHxuQ_jPm4yVOZC5l-100" value="Execute" style="rounded=0;whiteSpace=wrap;html=1;fillColor=#CC6600;fontColor=#FFFFFF;fontStyle=1" parent="1" vertex="1">
          <mxGeometry x="750" y="1700" width="120" height="60" as="geometry" />
        </mxCell>
        <mxCell id="34RIHxuQ_jPm4yVOZC5l-101" value="renderer.EnqueuePass(m_RenderPass)" style="text;whiteSpace=wrap;fontColor=#FF00FF;fontStyle=1" parent="1" vertex="1">
          <mxGeometry x="1530" y="410" width="250" height="40" as="geometry" />
        </mxCell>
        <mxCell id="34RIHxuQ_jPm4yVOZC5l-102" value="&lt;font color=&quot;#ff0000&quot;&gt;Create()&lt;/font&gt;" style="rounded=0;whiteSpace=wrap;html=1;fontStyle=1" parent="1" vertex="1">
          <mxGeometry x="160" y="1940" width="120" height="60" as="geometry" />
        </mxCell>
        <mxCell id="34RIHxuQ_jPm4yVOZC5l-103" value="" style="strokeWidth=2;html=1;shape=mxgraph.flowchart.annotation_2;align=left;labelPosition=right;pointerEvents=1;fontStyle=1" parent="1" vertex="1">
          <mxGeometry x="280" y="1920" width="50" height="100" as="geometry" />
        </mxCell>
        <UserObject label="Materials: CoreUtils.CreateEngineMaterial" link="CoreUtils.CreateEngineMaterial" id="34RIHxuQ_jPm4yVOZC5l-104">
          <mxCell style="text;whiteSpace=wrap;fontStyle=1" parent="1" vertex="1">
            <mxGeometry x="351" y="1900" width="200" height="40" as="geometry" />
          </mxCell>
        </UserObject>
        <mxCell id="34RIHxuQ_jPm4yVOZC5l-105" value="RenderPass:&#xa;ColorBlitPass" style="text;whiteSpace=wrap;fontStyle=1" parent="1" vertex="1">
          <mxGeometry x="351" y="2000" width="110" height="40" as="geometry" />
        </mxCell>
        <mxCell id="34RIHxuQ_jPm4yVOZC5l-107" value="" style="strokeWidth=2;html=1;shape=mxgraph.flowchart.annotation_2;align=left;labelPosition=right;pointerEvents=1;fontStyle=1" parent="1" vertex="1">
          <mxGeometry x="650" y="1080" width="50" height="100" as="geometry" />
        </mxCell>
        <mxCell id="34RIHxuQ_jPm4yVOZC5l-108" value="CoreUtils.Destroy" style="text;whiteSpace=wrap;fontColor=#FF0000;fontStyle=1" parent="1" vertex="1">
          <mxGeometry x="720" y="1060" width="70" height="40" as="geometry" />
        </mxCell>
        <mxCell id="34RIHxuQ_jPm4yVOZC5l-109" value="" style="strokeWidth=2;html=1;shape=mxgraph.flowchart.annotation_2;align=left;labelPosition=right;pointerEvents=1;fontStyle=1" parent="1" vertex="1">
          <mxGeometry x="826" y="1020" width="50" height="100" as="geometry" />
        </mxCell>
        <mxCell id="34RIHxuQ_jPm4yVOZC5l-110" value="m_Material" style="text;whiteSpace=wrap;fontStyle=1" parent="1" vertex="1">
          <mxGeometry x="877.62" y="1020" width="90" height="40" as="geometry" />
        </mxCell>
        <mxCell id="34RIHxuQ_jPm4yVOZC5l-117" value="renderer.EnqueuePass(m_RenderPass)" style="text;whiteSpace=wrap;fontStyle=1;verticalAlign=middle;align=center;" parent="1" vertex="1">
          <mxGeometry x="-125" y="2110" width="255" height="40" as="geometry" />
        </mxCell>
        <mxCell id="34RIHxuQ_jPm4yVOZC5l-118" value="" style="strokeWidth=2;html=1;shape=mxgraph.flowchart.annotation_2;align=left;labelPosition=right;pointerEvents=1;fontStyle=1" parent="1" vertex="1">
          <mxGeometry x="-250" y="2185" width="50" height="100" as="geometry" />
        </mxCell>
        <mxCell id="34RIHxuQ_jPm4yVOZC5l-119" value="m_RenderPass.SetTarget" style="text;whiteSpace=wrap;fontStyle=1" parent="1" vertex="1">
          <mxGeometry x="-193" y="2270" width="170" height="40" as="geometry" />
        </mxCell>
        <mxCell id="34RIHxuQ_jPm4yVOZC5l-120" value="m_RenderPass.ConfigureInput" style="text;whiteSpace=wrap;fontStyle=1" parent="1" vertex="1">
          <mxGeometry x="-193" y="2170" width="200" height="40" as="geometry" />
        </mxCell>
        <mxCell id="YidPIoeCpGj_MhU5HUg_-2" value="VolumeComponent：ScriptableRendererFeature&#xa;" style="text;whiteSpace=wrap;fontStyle=1" parent="1" vertex="1">
          <mxGeometry x="-660" y="1680" width="430" height="40" as="geometry" />
        </mxCell>
        <mxCell id="YidPIoeCpGj_MhU5HUg_-3" value="" style="strokeWidth=2;html=1;shape=mxgraph.flowchart.annotation_2;align=left;labelPosition=right;pointerEvents=1;fontStyle=1" parent="1" vertex="1">
          <mxGeometry x="-220" y="1547" width="50" height="256" as="geometry" />
        </mxCell>
        <mxCell id="YidPIoeCpGj_MhU5HUg_-4" value="AddRenderPasses" style="text;whiteSpace=wrap;fontStyle=1" parent="1" vertex="1">
          <mxGeometry x="-160" y="1530" width="130" height="40" as="geometry" />
        </mxCell>
        <mxCell id="YidPIoeCpGj_MhU5HUg_-5" value="SetupRenderPasses" style="text;whiteSpace=wrap;fontStyle=1" parent="1" vertex="1">
          <mxGeometry x="-160" y="1790" width="140" height="40" as="geometry" />
        </mxCell>
        <mxCell id="YidPIoeCpGj_MhU5HUg_-6" value="" style="strokeWidth=2;html=1;shape=mxgraph.flowchart.annotation_2;align=left;labelPosition=right;pointerEvents=1;fontStyle=1" parent="1" vertex="1">
          <mxGeometry x="-50" y="1490" width="50" height="100" as="geometry" />
        </mxCell>
        <mxCell id="YidPIoeCpGj_MhU5HUg_-7" value="renderer.EnqueuePass(m_RenderPass)" style="text;whiteSpace=wrap;fontStyle=1" parent="1" vertex="1">
          <mxGeometry x="10" y="1526" width="110" height="40" as="geometry" />
        </mxCell>
        <mxCell id="YidPIoeCpGj_MhU5HUg_-8" value="" style="strokeWidth=2;html=1;shape=mxgraph.flowchart.annotation_2;align=left;labelPosition=right;pointerEvents=1;fontStyle=1" parent="1" vertex="1">
          <mxGeometry x="-37" y="1750" width="50" height="100" as="geometry" />
        </mxCell>
        <mxCell id="YidPIoeCpGj_MhU5HUg_-9" value="m_RenderPass.SetTarget" style="text;whiteSpace=wrap;fontStyle=1" parent="1" vertex="1">
          <mxGeometry x="20" y="1835" width="170" height="40" as="geometry" />
        </mxCell>
        <mxCell id="YidPIoeCpGj_MhU5HUg_-10" value="m_RenderPass.ConfigureInput" style="text;whiteSpace=wrap;fontStyle=1" parent="1" vertex="1">
          <mxGeometry x="20" y="1735" width="200" height="40" as="geometry" />
        </mxCell>
        <mxCell id="YidPIoeCpGj_MhU5HUg_-14" value="VolumeComponent" style="text;strokeColor=none;fillColor=none;html=1;fontSize=24;fontStyle=1;verticalAlign=middle;align=center;fontColor=#FF0000;" parent="1" vertex="1">
          <mxGeometry x="-1380" y="2970" width="290" height="40" as="geometry" />
        </mxCell>
        <mxCell id="YidPIoeCpGj_MhU5HUg_-15" value="ScriptableRendererFeature：ScriptableObject，IDisposable" style="text;whiteSpace=wrap;" parent="1" vertex="1">
          <mxGeometry x="-660" y="1638" width="420" height="40" as="geometry" />
        </mxCell>
        <mxCell id="YidPIoeCpGj_MhU5HUg_-16" value="ScriptableRendererFeature&lt;div style=&quot;border-color: var(--border-color); padding: 0px; margin: 0px;&quot;&gt;&lt;br style=&quot;border-color: var(--border-color); padding: 0px; margin: 0px; color: rgb(0, 0, 0); font-family: Helvetica; font-size: 12px; font-style: normal; font-variant-ligatures: normal; font-variant-caps: normal; font-weight: 700; letter-spacing: normal; orphans: 2; text-indent: 0px; text-transform: none; widows: 2; word-spacing: 0px; -webkit-text-stroke-width: 0px; background-color: rgb(251, 251, 251); text-decoration-thickness: initial; text-decoration-style: initial; text-decoration-color: initial;&quot;&gt;&#xa;&#xa;&lt;/div&gt;" style="text;whiteSpace=wrap;html=1;align=center;verticalAlign=middle;" parent="1" vertex="1">
          <mxGeometry x="-650" y="2130" width="180" height="70" as="geometry" />
        </mxCell>
        <mxCell id="YidPIoeCpGj_MhU5HUg_-17" value="" style="strokeWidth=2;html=1;shape=mxgraph.flowchart.annotation_2;align=left;labelPosition=right;pointerEvents=1;" parent="1" vertex="1">
          <mxGeometry x="-470" y="2050" width="50" height="190" as="geometry" />
        </mxCell>
        <mxCell id="YidPIoeCpGj_MhU5HUg_-19" value="OnValidate" style="text;whiteSpace=wrap;" parent="1" vertex="1">
          <mxGeometry x="-400" y="2030" width="90" height="40" as="geometry" />
        </mxCell>
        <mxCell id="YidPIoeCpGj_MhU5HUg_-20" value="OnEnable" style="text;whiteSpace=wrap;" parent="1" vertex="1">
          <mxGeometry x="-400" y="2060" width="90" height="40" as="geometry" />
        </mxCell>
        <mxCell id="YidPIoeCpGj_MhU5HUg_-21" value="" style="shape=curlyBracket;whiteSpace=wrap;html=1;rounded=1;flipH=1;labelPosition=right;verticalLabelPosition=middle;align=left;verticalAlign=middle;" parent="1" vertex="1">
          <mxGeometry x="-330" y="2040" width="20" height="50" as="geometry" />
        </mxCell>
        <mxCell id="YidPIoeCpGj_MhU5HUg_-22" value="Create" style="text;whiteSpace=wrap;" parent="1" vertex="1">
          <mxGeometry x="-300" y="2050" width="50" height="30" as="geometry" />
        </mxCell>
        <mxCell id="YidPIoeCpGj_MhU5HUg_-26" style="edgeStyle=orthogonalEdgeStyle;rounded=0;orthogonalLoop=1;jettySize=auto;html=1;" parent="1" source="YidPIoeCpGj_MhU5HUg_-24" target="YidPIoeCpGj_MhU5HUg_-25" edge="1">
          <mxGeometry relative="1" as="geometry" />
        </mxCell>
        <mxCell id="YidPIoeCpGj_MhU5HUg_-24" value="IDisposable" style="text;whiteSpace=wrap;align=center;verticalAlign=middle;" parent="1" vertex="1">
          <mxGeometry x="-810" y="2220" width="70" height="40" as="geometry" />
        </mxCell>
        <mxCell id="YidPIoeCpGj_MhU5HUg_-25" value="Dispose" style="text;whiteSpace=wrap;align=center;verticalAlign=middle;" parent="1" vertex="1">
          <mxGeometry x="-970" y="2220" width="80" height="40" as="geometry" />
        </mxCell>
        <mxCell id="YidPIoeCpGj_MhU5HUg_-27" value="" style="shape=flexArrow;endArrow=classic;html=1;rounded=0;" parent="1" edge="1">
          <mxGeometry width="50" height="50" relative="1" as="geometry">
            <mxPoint x="-710" y="2210" as="sourcePoint" />
            <mxPoint x="-660" y="2160" as="targetPoint" />
          </mxGeometry>
        </mxCell>
        <mxCell id="YidPIoeCpGj_MhU5HUg_-28" value="" style="shape=flexArrow;endArrow=classic;html=1;rounded=0;" parent="1" edge="1">
          <mxGeometry width="50" height="50" relative="1" as="geometry">
            <mxPoint x="-720" y="2080" as="sourcePoint" />
            <mxPoint x="-660" y="2130" as="targetPoint" />
          </mxGeometry>
        </mxCell>
        <mxCell id="YidPIoeCpGj_MhU5HUg_-47" style="edgeStyle=orthogonalEdgeStyle;rounded=0;orthogonalLoop=1;jettySize=auto;html=1;" parent="1" source="YidPIoeCpGj_MhU5HUg_-30" target="34RIHxuQ_jPm4yVOZC5l-117" edge="1">
          <mxGeometry relative="1" as="geometry" />
        </mxCell>
        <mxCell id="YidPIoeCpGj_MhU5HUg_-30" value="AddRenderPasses" style="text;whiteSpace=wrap;align=center;verticalAlign=middle;" parent="1" vertex="1">
          <mxGeometry x="-410" y="2110" width="130" height="40" as="geometry" />
        </mxCell>
        <mxCell id="YidPIoeCpGj_MhU5HUg_-32" value="SetupRenderPasses" style="text;whiteSpace=wrap;" parent="1" vertex="1">
          <mxGeometry x="-400" y="2215" width="140" height="40" as="geometry" />
        </mxCell>
        <mxCell id="YidPIoeCpGj_MhU5HUg_-33" value="FullScreenPassRendererFeature： ScriptableRendererFeature" style="text;whiteSpace=wrap;" parent="1" vertex="1">
          <mxGeometry x="-970" y="2530" width="370" height="40" as="geometry" />
        </mxCell>
        <mxCell id="YidPIoeCpGj_MhU5HUg_-34" value="FullScreenPassRendererFeature" style="text;strokeColor=none;fillColor=none;html=1;fontSize=24;fontStyle=1;verticalAlign=middle;align=center;fontColor=#FF0000;" parent="1" vertex="1">
          <mxGeometry x="-1230" y="2420" width="100" height="40" as="geometry" />
        </mxCell>
        <mxCell id="YidPIoeCpGj_MhU5HUg_-35" value="FullScreenRenderPass：ScriptableRenderPass" style="text;whiteSpace=wrap;" parent="1" vertex="1">
          <mxGeometry x="-930" y="2580" width="270" height="40" as="geometry" />
        </mxCell>
        <mxCell id="YidPIoeCpGj_MhU5HUg_-37" value="ScriptableObject" style="text;whiteSpace=wrap;" parent="1" vertex="1">
          <mxGeometry x="-835" y="2050" width="120" height="40" as="geometry" />
        </mxCell>
        <mxCell id="YidPIoeCpGj_MhU5HUg_-38" value="Initializes this feature&#39;s resources. This is called every time serialization happens." style="text;whiteSpace=wrap;fontColor=#999900;" parent="1" vertex="1">
          <mxGeometry x="-300" y="2030" width="460" height="40" as="geometry" />
        </mxCell>
        <mxCell id="YidPIoeCpGj_MhU5HUg_-39" value="" style="strokeWidth=2;html=1;shape=mxgraph.flowchart.annotation_2;align=left;labelPosition=right;pointerEvents=1;rotation=-180;" parent="1" vertex="1">
          <mxGeometry x="-570" y="2520" width="50" height="100" as="geometry" />
        </mxCell>
        <mxCell id="YidPIoeCpGj_MhU5HUg_-53" style="edgeStyle=orthogonalEdgeStyle;rounded=0;orthogonalLoop=1;jettySize=auto;html=1;" parent="1" source="YidPIoeCpGj_MhU5HUg_-41" edge="1">
          <mxGeometry relative="1" as="geometry">
            <mxPoint x="-69.99999999999955" y="2540" as="targetPoint" />
          </mxGeometry>
        </mxCell>
        <mxCell id="YidPIoeCpGj_MhU5HUg_-41" value="BlitCameraTexture" style="text;whiteSpace=wrap;align=center;verticalAlign=middle;" parent="1" vertex="1">
          <mxGeometry x="-325" y="2520" width="165" height="40" as="geometry" />
        </mxCell>
        <mxCell id="YidPIoeCpGj_MhU5HUg_-51" style="edgeStyle=orthogonalEdgeStyle;rounded=0;orthogonalLoop=1;jettySize=auto;html=1;" parent="1" source="YidPIoeCpGj_MhU5HUg_-42" target="YidPIoeCpGj_MhU5HUg_-49" edge="1">
          <mxGeometry relative="1" as="geometry" />
        </mxCell>
        <mxCell id="YidPIoeCpGj_MhU5HUg_-42" value="DrawFullScreen" style="text;whiteSpace=wrap;verticalAlign=middle;align=center;" parent="1" vertex="1">
          <mxGeometry x="-305" y="2580" width="120" height="40" as="geometry" />
        </mxCell>
        <mxCell id="YidPIoeCpGj_MhU5HUg_-43" value="ExecutePass（）" style="rounded=0;whiteSpace=wrap;html=1;" parent="1" vertex="1">
          <mxGeometry x="-525" y="2540" width="120" height="60" as="geometry" />
        </mxCell>
        <mxCell id="YidPIoeCpGj_MhU5HUg_-44" value="" style="endArrow=classic;html=1;rounded=0;entryX=0;entryY=0.5;entryDx=0;entryDy=0;exitX=1;exitY=0;exitDx=0;exitDy=0;" parent="1" source="YidPIoeCpGj_MhU5HUg_-43" target="YidPIoeCpGj_MhU5HUg_-41" edge="1">
          <mxGeometry width="50" height="50" relative="1" as="geometry">
            <mxPoint x="-400" y="2540" as="sourcePoint" />
            <mxPoint x="-320" y="2530" as="targetPoint" />
          </mxGeometry>
        </mxCell>
        <mxCell id="YidPIoeCpGj_MhU5HUg_-45" value="" style="endArrow=classic;html=1;rounded=0;exitX=1;exitY=1;exitDx=0;exitDy=0;" parent="1" source="YidPIoeCpGj_MhU5HUg_-43" edge="1">
          <mxGeometry width="50" height="50" relative="1" as="geometry">
            <mxPoint x="-380" y="2660" as="sourcePoint" />
            <mxPoint x="-310" y="2600" as="targetPoint" />
          </mxGeometry>
        </mxCell>
        <mxCell id="YidPIoeCpGj_MhU5HUg_-49" value="DrawProcedural" style="text;whiteSpace=wrap;align=center;verticalAlign=middle;" parent="1" vertex="1">
          <mxGeometry x="-305" y="2710" width="120" height="40" as="geometry" />
        </mxCell>
        <mxCell id="YidPIoeCpGj_MhU5HUg_-65" style="edgeStyle=orthogonalEdgeStyle;rounded=0;orthogonalLoop=1;jettySize=auto;html=1;entryX=0;entryY=0.5;entryDx=0;entryDy=0;" parent="1" source="YidPIoeCpGj_MhU5HUg_-52" target="YidPIoeCpGj_MhU5HUg_-64" edge="1">
          <mxGeometry relative="1" as="geometry" />
        </mxCell>
        <UserObject label="CoreUtils.SetRenderTarget（）" link="CoreUtils.SetRenderTarget" id="YidPIoeCpGj_MhU5HUg_-52">
          <mxCell style="text;whiteSpace=wrap;align=center;verticalAlign=middle;" parent="1" vertex="1">
            <mxGeometry x="7" y="2470" width="180" height="40" as="geometry" />
          </mxCell>
        </UserObject>
        <mxCell id="YidPIoeCpGj_MhU5HUg_-57" style="edgeStyle=orthogonalEdgeStyle;rounded=0;orthogonalLoop=1;jettySize=auto;html=1;entryX=0;entryY=0.5;entryDx=0;entryDy=0;" parent="1" source="YidPIoeCpGj_MhU5HUg_-54" target="YidPIoeCpGj_MhU5HUg_-56" edge="1">
          <mxGeometry relative="1" as="geometry" />
        </mxCell>
        <mxCell id="YidPIoeCpGj_MhU5HUg_-54" value="BlitTexture（）" style="text;whiteSpace=wrap;align=center;verticalAlign=middle;" parent="1" vertex="1">
          <mxGeometry x="20" y="2570" width="90" height="40" as="geometry" />
        </mxCell>
        <mxCell id="YidPIoeCpGj_MhU5HUg_-55" value="" style="strokeWidth=2;html=1;shape=mxgraph.flowchart.annotation_2;align=left;labelPosition=right;pointerEvents=1;" parent="1" vertex="1">
          <mxGeometry x="-50" y="2490" width="50" height="100" as="geometry" />
        </mxCell>
        <mxCell id="YidPIoeCpGj_MhU5HUg_-59" style="edgeStyle=orthogonalEdgeStyle;rounded=0;orthogonalLoop=1;jettySize=auto;html=1;" parent="1" source="YidPIoeCpGj_MhU5HUg_-56" target="YidPIoeCpGj_MhU5HUg_-58" edge="1">
          <mxGeometry relative="1" as="geometry" />
        </mxCell>
        <mxCell id="YidPIoeCpGj_MhU5HUg_-56" value="BlitTexture（）" style="text;whiteSpace=wrap;align=center;verticalAlign=middle;" parent="1" vertex="1">
          <mxGeometry x="200" y="2570" width="130" height="40" as="geometry" />
        </mxCell>
        <mxCell id="YidPIoeCpGj_MhU5HUg_-58" value="DrawTriangle（）" style="text;whiteSpace=wrap;align=center;verticalAlign=middle;" parent="1" vertex="1">
          <mxGeometry x="421" y="2570" width="130" height="40" as="geometry" />
        </mxCell>
        <mxCell id="YidPIoeCpGj_MhU5HUg_-60" value="" style="strokeWidth=2;html=1;shape=mxgraph.flowchart.annotation_2;align=left;labelPosition=right;pointerEvents=1;" parent="1" vertex="1">
          <mxGeometry x="550" y="2540" width="50" height="100" as="geometry" />
        </mxCell>
        <UserObject label="cmd.DrawProcedural" link="cmd.DrawProcedural" id="YidPIoeCpGj_MhU5HUg_-61">
          <mxCell style="text;whiteSpace=wrap;align=center;verticalAlign=middle;" parent="1" vertex="1">
            <mxGeometry x="606" y="2620" width="150" height="40" as="geometry" />
          </mxCell>
        </UserObject>
        <UserObject label="cmd.DrawMesh" link="cmd.DrawMesh" id="YidPIoeCpGj_MhU5HUg_-62">
          <mxCell style="text;whiteSpace=wrap;align=center;verticalAlign=middle;" parent="1" vertex="1">
            <mxGeometry x="621" y="2520" width="120" height="40" as="geometry" />
          </mxCell>
        </UserObject>
        <mxCell id="YidPIoeCpGj_MhU5HUg_-64" value="SetRenderTarget" style="text;whiteSpace=wrap;align=center;verticalAlign=middle;" parent="1" vertex="1">
          <mxGeometry x="260" y="2470" width="120" height="40" as="geometry" />
        </mxCell>
        <mxCell id="YidPIoeCpGj_MhU5HUg_-66" value="buffer.nameID" style="rounded=0;whiteSpace=wrap;html=1;fontColor=#FF9933;" parent="1" vertex="1">
          <mxGeometry x="260" y="2400" width="120" height="60" as="geometry" />
        </mxCell>
        <mxCell id="YidPIoeCpGj_MhU5HUg_-67" value="[Serializable,VolumeComponentMenu(&quot;...&quot;)]" style="text;whiteSpace=wrap;" parent="1" vertex="1">
          <mxGeometry x="-1090" y="2940" width="460" height="40" as="geometry" />
        </mxCell>
        <mxCell id="YidPIoeCpGj_MhU5HUg_-68" value="set Volume Cpmponent" style="text;html=1;strokeColor=none;fillColor=none;align=center;verticalAlign=middle;whiteSpace=wrap;rounded=0;" parent="1" vertex="1">
          <mxGeometry x="-1070" y="2910" width="170" height="30" as="geometry" />
        </mxCell>
        <mxCell id="YidPIoeCpGj_MhU5HUg_-69" value="IPostProcessComponent" style="text;html=1;strokeColor=none;fillColor=none;align=center;verticalAlign=middle;whiteSpace=wrap;rounded=0;" parent="1" vertex="1">
          <mxGeometry x="-1050" y="3060" width="170" height="30" as="geometry" />
        </mxCell>
        <mxCell id="YidPIoeCpGj_MhU5HUg_-70" value="IPostProcessComponent：" style="text;whiteSpace=wrap;" parent="1" vertex="1">
          <mxGeometry x="-1540" y="2890" width="170" height="40" as="geometry" />
        </mxCell>
        <mxCell id="YidPIoeCpGj_MhU5HUg_-71" value="" style="shape=flexArrow;endArrow=classic;html=1;rounded=0;" parent="1" edge="1">
          <mxGeometry width="50" height="50" relative="1" as="geometry">
            <mxPoint x="-1390" y="2923" as="sourcePoint" />
            <mxPoint x="-1360" y="2963" as="targetPoint" />
          </mxGeometry>
        </mxCell>
        <mxCell id="YidPIoeCpGj_MhU5HUg_-74" style="edgeStyle=orthogonalEdgeStyle;rounded=0;orthogonalLoop=1;jettySize=auto;html=1;exitX=0.5;exitY=1;exitDx=0;exitDy=0;entryX=0.5;entryY=0;entryDx=0;entryDy=0;" parent="1" source="YidPIoeCpGj_MhU5HUg_-72" target="YidPIoeCpGj_MhU5HUg_-73" edge="1">
          <mxGeometry relative="1" as="geometry" />
        </mxCell>
        <mxCell id="YidPIoeCpGj_MhU5HUg_-72" value="&lt;span style=&quot;color: rgb(255, 0, 0); font-family: Helvetica; font-size: 24px; font-style: normal; font-variant-ligatures: normal; font-variant-caps: normal; font-weight: 700; letter-spacing: normal; orphans: 2; text-align: center; text-indent: 0px; text-transform: none; widows: 2; word-spacing: 0px; -webkit-text-stroke-width: 0px; background-color: rgb(251, 251, 251); text-decoration-thickness: initial; text-decoration-style: initial; text-decoration-color: initial; float: none; display: inline !important;&quot;&gt;VolumeComponent&lt;/span&gt;" style="text;whiteSpace=wrap;html=1;" parent="1" vertex="1">
          <mxGeometry x="1900" y="1960" width="250" height="50" as="geometry" />
        </mxCell>
        <mxCell id="YidPIoeCpGj_MhU5HUg_-73" value="ScriptableRendererFeature" style="text;whiteSpace=wrap;html=1;fontSize=24;fontColor=#CC0000;align=center;verticalAlign=middle;" parent="1" vertex="1">
          <mxGeometry x="1850" y="2140" width="350" height="50" as="geometry" />
        </mxCell>
        <mxCell id="3i7ALOpvW_s3PZTzkOij-3" value="&#xa;&lt;span style=&quot;color: rgb(0, 0, 0); font-family: Helvetica; font-size: 12px; font-style: normal; font-variant-ligatures: normal; font-variant-caps: normal; font-weight: 400; letter-spacing: normal; orphans: 2; text-indent: 0px; text-transform: none; widows: 2; word-spacing: 0px; -webkit-text-stroke-width: 0px; background-color: rgb(251, 251, 251); text-decoration-thickness: initial; text-decoration-style: initial; text-decoration-color: initial; float: none; display: inline !important;&quot;&gt;OnCameraCleanup&lt;/span&gt;&#xa;&#xa;" style="rounded=0;whiteSpace=wrap;html=1;align=center;" parent="1" vertex="1">
          <mxGeometry x="461" y="1240" width="179" height="40" as="geometry" />
        </mxCell>
      </root>
    </mxGraphModel>
  </diagram>
</mxfile>
